Coordinates
version=1
nRows=19
nColumns=24
inDegrees=yes

Units are S.I. units (second, meters, Newtons, ...)
Angles are in degrees.

endheader
time	pelvis_tilt	pelvis_list	pelvis_rotation	pelvis_tx	pelvis_ty	pelvis_tz	hip_flexion_r	hip_adduction_r	hip_rotation_r	knee_angle_r	ankle_angle_r	subtalar_angle_r	mtp_angle_r	hip_flexion_l	hip_adduction_l	hip_rotation_l	knee_angle_l	ankle_angle_l	subtalar_angle_l	mtp_angle_l	lumbar_extension	lumbar_bending	lumbar_rotation
      3.89000000	     13.22435454	      0.87592102	     -3.89815453	      0.55659206	      0.94679315	      0.03601939	    -17.69258622	     -5.51928929	     -3.08056824	    -36.49855632	     20.59769736	     17.93154781	     39.41544999	      1.45857027	      2.13688772	     -7.80050915	    -14.03625005	      5.66501433	     12.08744964	     19.57368012	    -22.70447767	     -1.52732348	      4.92053751
      3.89500000	     13.27514963	      0.97664842	     -3.89832141	      0.56110308	      0.94751300	      0.03530700	    -17.04093577	     -5.85638543	     -3.28499893	    -38.11215264	     19.29363607	     18.08087908	     42.29635086	      1.12190147	      2.27259699	     -7.91339227	    -14.11747623	      6.16460264	     12.57340943	     17.11045253	    -22.75061810	     -1.71718997	      4.84089289
      3.90000000	     13.35435985	      1.10652878	     -3.89294345	      0.56564164	      0.94827396	      0.03462752	    -16.42209819	     -6.22643093	     -3.49597575	    -39.70756505	     18.22313362	     18.32358803	     42.29415123	      0.70326811	      2.44233803	     -8.05706912	    -14.06734186	      6.39535953	     12.98754527	     17.06586017	    -22.82069374	     -1.94038672	      4.71866679
      3.90500000	     13.42678204	      1.22922336	     -3.89963987	      0.57013385	      0.94901969	      0.03401232	    -15.77886828	     -6.58799371	     -3.67980394	    -41.28005154	     17.18274352	     18.45163072	     42.32565283	      0.27178671	      2.60053034	     -8.24577187	    -13.97404427	      6.63273896	     13.41843806	     16.99776666	    -22.88626593	     -2.16238129	      4.62074072
      3.91000000	     13.48833011	      1.30243505	     -3.92296699	      0.57460085	      0.94976715	      0.03352214	    -15.12258982	     -6.88033445	     -3.80785937	    -42.77182207	     16.07109513	     18.24980539	     44.13323639	     -0.15561143	      2.68670086	     -8.53972583	    -13.90744988	      7.20490730	     14.15939473	     13.47498980	    -22.94160172	     -2.34132602	      4.58578530
      3.91500000	     13.58289083	      1.41379171	     -3.92677619	      0.57907111	      0.95054999	      0.03300128	    -14.51045805	     -7.21710203	     -3.97932375	    -44.22561513	     15.20913296	     18.10842179	     44.00343902	     -0.67181394	      2.83231766	     -8.77728158	    -13.68408681	      7.38564255	     14.66371139	     13.44419851	    -23.03035164	     -2.55457514	      4.48121245
      3.92000000	     13.67688374	      1.51831237	     -3.93583077	      0.58350063	      0.95133933	      0.03253377	    -13.89655547	     -7.53333021	     -4.11669389	    -45.61895007	     14.41149800	     17.78178683	     43.85844526	     -1.20279426	      2.97203833	     -9.04236898	    -13.42382015	      7.51783205	     15.14456192	     13.40500471	    -23.12300003	     -2.76268296	      4.35521627
      3.92500000	     13.77971627	      1.56607162	     -3.97655090	      0.58791859	      0.95214458	      0.03222284	    -13.29426258	     -7.77580807	     -4.18710077	    -46.95823109	     13.89033739	     17.44278355	     41.38218519	     -1.76348433	      3.03791586	     -9.40814890	    -13.15542423	      7.88817356	     15.86951826	     11.41584525	    -23.22410742	     -2.93083988	      4.31378647
      3.93000000	     13.88693155	      1.63370044	     -4.00438154	      0.59231569	      0.95295154	      0.03187331	    -12.70381877	     -8.03691018	     -4.29983651	    -48.20935819	     13.34684072	     16.78805402	     41.26198760	     -2.36535456	      3.14580112	     -9.70078736	    -12.77501861	      7.98803619	     16.36225803	     11.35854931	    -23.33193694	     -3.10934189	      4.24217832
      3.93500000	     14.00289846	      1.70469218	     -4.01280799	      0.59666101	      0.95375212	      0.03151926	    -12.12553527	     -8.29825544	     -4.45122540	    -49.39998075	     12.89983245	     16.05929142	     41.09177328	     -2.96980738	      3.26078434	     -9.99205220	    -12.39967173	      8.03582257	     16.81942632	     11.30947089	    -23.45591012	     -3.28521635	      4.11264708
      3.94000000	     14.14974917	      1.69831742	     -4.08992125	      0.60104476	      0.95461705	      0.03137718	    -11.58999113	     -8.46267021	     -4.48600094	    -50.50845984	     12.78971513	     15.37721532	     38.14486022	     -3.64788971	      3.28638828	    -10.43464016	    -11.98616377	      8.33797921	     17.54950954	      9.58052326	    -23.60548117	     -3.41142523	      4.12217003
      3.94500000	     14.25419580	      1.68612186	     -4.08957500	      0.60535422	      0.95544211	      0.03108700	    -11.02634827	     -8.60059166	     -4.62382952	    -51.51077800	     12.51536765	     14.32162175	     37.95461952	     -4.28945104	      3.32335486	    -10.68027910	    -11.50714729	      8.35496692	     17.94988405	      9.49343288	    -23.72370098	     -3.49233108	      4.03749167
      3.95000000	     14.38942789	      1.65525455	     -4.11690659	      0.60963201	      0.95628154	      0.03086367	    -10.49497653	     -8.72052582	     -4.74078836	    -52.44054963	     12.35825530	     13.25597960	     37.62627389	     -4.96953955	      3.34483416	    -11.00100459	    -11.02178375	      8.40229278	     18.41805744	      9.37262384	    -23.87742904	     -3.56387383	      3.99643607
      3.95500000	     14.51057488	      1.60713658	     -4.14112699	      0.61388137	      0.95709964	      0.03065838	     -9.95333459	     -8.81335302	     -4.87052931	    -53.29216247	     12.28806194	     12.15189391	     37.19066719	     -5.64159054	      3.35297877	    -11.30155008	    -10.51707083	      8.42466070	     18.84111865	      9.22166147	    -24.01961195	     -3.61399772	      3.95492088
      3.96000000	     14.62021871	      1.57003110	     -4.16609038	      0.61808193	      0.95785243	      0.03046019	     -9.39114262	     -8.91941524	     -5.00206471	    -54.12922369	     12.62432346	     11.39968358	     33.20445489	     -6.28103967	      3.37152554	    -11.61085327	    -10.06112903	      8.61546244	     19.36454533	      7.34352504	    -24.15179151	     -3.67213676	      3.89190259
      3.96500000	     14.71236299	      1.49341680	     -4.17113608	      0.62221293	      0.95860543	      0.03022895	     -8.81930146	     -8.96472506	     -5.15125618	    -54.83536181	     12.63037199	     10.30438635	     33.06468507	     -6.91731014	      3.36006513	    -11.81666639	     -9.54603183	      8.61019794	     19.65969994	      7.26285207	    -24.27806589	     -3.67518114	      3.83737633
      3.97000000	     14.81027349	      1.38107406	     -4.17970903	      0.62635980	      0.95936126	      0.03001634	     -8.27249921	     -8.96530121	     -5.30462189	    -55.44036672	     12.72729303	      9.24764317	     32.80344744	     -7.55959179	      3.31193704	    -12.07029993	     -9.04464527	      8.64382786	     20.00295185	      7.14109966	    -24.40896291	     -3.63553559	      3.83348549
      3.97500000	     14.89313549	      1.28201668	     -4.21254482	      0.63043872	      0.96005600	      0.02987271	     -7.69027018	     -8.97318358	     -5.41633263	    -56.02384477	     13.08945509	      8.51306743	     30.27997374	     -8.17387305	      3.27894721	    -12.34244404	     -8.56639242	      8.78881829	     20.39676767	      5.63404639	    -24.52944520	     -3.62091013	      3.81145519
      3.98000000	     14.94347329	      1.15494423	     -4.19150398	      0.63445663	      0.96071762	      0.02961845	     -7.09361849	     -8.93501126	     -5.58779393	    -56.48850707	     13.23193288	      7.64530453	     30.17718445	     -8.74485713	      3.21853863	    -12.46732490	     -8.08166230	      8.78739613	     20.58264568	      5.56635695	    -24.62704443	     -3.54367751	      3.76230122
